HIERARCHY
ROOT hip
{
	OFFSET 0.000000 0.000000 0.000000 
	CHANNELS 6 Xposition Yposition Zposition Zrotation Xrotation Yrotation
	JOINT abdomen
	{
		OFFSET 0.000000 3.402643 0.000000 
		CHANNELS 3 Zrotation Xrotation Yrotation
		JOINT chest
		{
			OFFSET 0.000000 8.438565 -0.680529 
			CHANNELS 3 Zrotation Xrotation Yrotation
			JOINT neck
			{
				OFFSET 0.000000 10.207942 -0.272212 
				CHANNELS 3 Zrotation Xrotation Yrotation
				JOINT head
				{
					OFFSET 0.000000 3.130431 0.000000 
					CHANNELS 3 Zrotation Xrotation Yrotation
					End Site
					{
						OFFSET 0.000000 3.130435 0.000000 
					}
				}
			}
			JOINT lCollar
			{
				OFFSET 3.470700 6.669187 -0.816635 
				CHANNELS 3 Zrotation Xrotation Yrotation
				JOINT lShldr
				{
					OFFSET 3.198488 0.000000 0.000000 
					CHANNELS 3 Zrotation Xrotation Yrotation
					JOINT lForeArm
					{
						OFFSET 10.139888 0.000000 0.000000 
						CHANNELS 3 Zrotation Xrotation Yrotation
						JOINT lHand
						{
							OFFSET 8.370511 0.000000 0.000000 
							CHANNELS 3 Zrotation Xrotation Yrotation
							End Site
							{
								OFFSET 4.083176 0.000000 0.000000 
							}
						}
					}
				}
			}
			JOINT rCollar
			{
				OFFSET -3.470700 6.669187 -0.816635 
				CHANNELS 3 Zrotation Xrotation Yrotation
				JOINT rShldr
				{
					OFFSET -3.198488 0.000000 0.000000 
					CHANNELS 3 Zrotation Xrotation Yrotation
					JOINT rForeArm
					{
						OFFSET -10.139888 0.000000 0.000000 
						CHANNELS 3 Zrotation Xrotation Yrotation
						JOINT rHand
						{
							OFFSET -8.370511 0.000000 0.000000 
							CHANNELS 3 Zrotation Xrotation Yrotation
							End Site
							{
								OFFSET -4.083176 0.000000 0.000000 
							}
						}
					}
				}
			}
		}
	}
	JOINT lThigh
	{
		OFFSET 5.308129 -1.633274 1.361059 
		CHANNELS 3 Zrotation Xrotation Yrotation
		JOINT lShin
		{
			OFFSET -2.041588 -20.007561 0.000000 
			CHANNELS 3 Zrotation Xrotation Yrotation
			JOINT lFoot
			{
				OFFSET 0.000000 -19.190928 -1.224953 
				CHANNELS 3 Zrotation Xrotation Yrotation
				End Site
				{
					OFFSET 0.000000 -2.449906 4.627600 
				}
			}
		}
	}
	JOINT rThigh
	{
		OFFSET -5.308129 -1.633274 1.361059 
		CHANNELS 3 Zrotation Xrotation Yrotation
		JOINT rShin
		{
			OFFSET 2.041588 -20.007561 0.000000 
			CHANNELS 3 Zrotation Xrotation Yrotation
			JOINT rFoot
			{
				OFFSET 0.000000 -19.190928 -1.224953 
				CHANNELS 3 Zrotation Xrotation Yrotation
				End Site
				{
					OFFSET 0.000000 -2.449906 4.627600 
				}
			}
		}
	}
}
MOTION
Frames: 11
Frame Time: 0.033333
5.055933 46.373520 2.844308 0.872082 4.706484 -11.340942 -1.880549 4.401934 -2.863423 -3.687005 -3.089306 -5.091554 0.488660 2.255773 -0.155953 2.458519 -4.429527 15.805646 -11.913368 0.218913 3.038861 -61.483665 -20.381836 9.349899 -14.766662 3.094046 -45.125370 2.014114 -28.431648 -8.862147 5.319664 9.900536 -2.568154 74.345901 -3.882164 17.473015 4.169374 14.969971 52.176620 -6.899459 -3.142466 6.011000 3.325779 -27.483379 -12.190160 -6.373551 33.644810 -0.581144 -2.543222 -13.244078 29.507013 -3.463149 -22.309643 9.200881 -0.069222 35.500557 1.421880 5.779387 -15.979408 -11.813920 
6.446418 43.499615 8.358642 -0.039482 8.349607 -22.689579 -2.240798 6.459945 -3.390342 -4.517326 -2.852454 -7.383472 0.127430 4.960924 -0.128186 4.233123 -6.116211 34.261147 -17.866112 -0.326561 10.670287 -46.714062 -63.978409 12.206315 -20.843750 19.120060 -89.802490 -5.137628 -41.450829 -9.770886 5.160719 9.837687 -4.457054 79.136620 -6.768657 23.582411 9.866254 19.981083 91.007484 -11.705769 -7.033150 7.406440 14.813997 -42.257675 -5.337173 -9.050982 48.311646 0.576499 -8.119678 -16.563076 35.505524 -5.733808 -27.200607 9.361872 3.113558 49.773685 0.557542 8.990605 -28.418570 -9.003191 
7.393781 41.304333 12.656929 -0.776640 11.248993 -32.514629 -1.715411 7.877372 2.119648 -3.931904 -3.195598 -4.019024 0.049206 7.109370 -0.152574 4.822774 -7.152585 44.010490 -19.673773 -1.466042 12.381441 83.217133 -85.754204 133.895416 -13.938159 39.055805 -123.459297 -13.147403 -54.441860 -11.750759 5.313733 9.762221 -6.067669 84.813698 -10.636420 29.760557 6.518787 32.499462 120.242348 -12.474564 -11.171671 5.838991 33.056789 -48.271217 9.336133 -11.321497 55.865597 2.606541 -13.513549 -16.505062 35.282402 -8.637364 -28.851711 9.202646 6.412967 55.631519 -2.211154 14.235430 -33.952881 -5.166889 
7.517856 40.510559 14.432012 -1.110548 12.556294 -38.840572 0.167643 7.988246 16.871237 -1.048044 -4.423090 9.030494 0.424138 8.085711 -0.303727 3.404664 -7.048210 37.127232 -14.731791 -2.338600 4.231884 84.816185 -85.914375 129.072861 -12.749705 51.100414 -133.185730 -9.137697 -28.862421 -13.130472 5.969811 9.622859 -7.018577 91.260727 -15.812941 35.641617 1.244803 37.783398 131.355377 -7.134824 -15.358479 -0.792372 38.042217 -46.942574 14.492455 -14.873461 63.309662 5.510877 -12.426131 -23.491291 36.464031 -9.946963 -29.437523 8.946069 7.803447 56.410389 -3.726090 17.316351 -34.254356 -0.762861 
7.507885 40.447685 14.982627 -1.212514 12.956156 -42.560139 1.349012 7.361263 29.856426 1.627802 -5.202988 25.040510 0.681114 8.388085 -0.411864 1.927561 -6.783306 21.692604 -10.298871 -5.021619 -6.561759 -6.912598 -75.115517 31.242558 -25.377672 56.431538 -125.076553 4.294093 10.324883 -18.191454 6.783193 9.462020 -7.549279 97.395279 -20.453934 41.294018 0.062843 38.653976 131.020279 -0.789625 -18.856010 -8.310908 39.281040 -45.128712 15.148587 -16.168730 64.899368 6.763575 -12.323092 -26.072128 38.530178 -10.257151 -29.827646 8.778974 8.101849 55.806850 -4.087964 18.356237 -33.131386 2.837859 
7.867943 40.294453 15.676711 -1.304458 13.287688 -45.022404 0.098399 7.050772 30.300409 1.381379 -4.588513 36.712337 0.316089 8.642446 -0.281820 2.818634 -7.734882 9.364507 -10.284679 -6.775228 -11.185964 -5.806460 -58.745457 25.161676 -39.892071 50.078594 -111.293083 4.294093 10.324883 -18.191454 7.509978 9.314936 -8.029274 101.771477 -22.977058 45.853088 -1.821387 39.584278 131.020187 2.775423 -21.719946 -11.103625 39.554955 -44.546738 15.623482 -17.822800 66.852623 8.100842 -11.532655 -28.310850 40.309284 -11.402705 -30.147825 9.218878 9.511023 55.636631 -5.606375 20.069569 -32.602673 5.710608 
7.294869 40.021721 15.553780 -1.376324 13.580195 -46.592171 -1.710058 8.902347 22.998798 -2.008092 -4.479677 43.739563 -0.138373 8.867157 -0.115390 7.673522 -11.093687 11.836615 -6.211799 -9.178574 -13.196803 -19.831606 -53.736092 -9.738329 -46.443993 18.280405 -77.632256 4.294093 10.324883 -18.191454 8.745394 9.047713 -8.582651 105.153229 -23.609901 46.806023 -6.965257 41.529289 131.485489 5.560113 -25.512262 -6.418977 41.790386 -43.578564 16.549507 -19.381184 67.956360 9.713760 -12.739633 -29.507877 39.875114 -11.001626 -30.613966 7.926073 8.901176 56.464756 -4.940372 20.559547 -33.005840 7.833739 
6.662847 39.793835 15.746423 -1.407157 13.687424 -47.967743 -2.978901 12.327579 3.721987 -3.927171 -4.316049 41.841991 -0.148292 8.955043 -0.113636 13.056479 -14.104099 36.771755 7.708390 -14.101783 -15.444612 2.405754 -39.576126 -0.975595 -39.488873 -8.347832 -49.395588 4.294093 10.324883 -18.191454 10.073290 8.738852 -9.086040 106.679062 -18.641960 47.338493 -10.755953 43.875015 124.946739 10.307508 -29.742931 7.774339 42.542503 -42.258518 16.316704 -20.213097 68.839722 10.395294 -13.675559 -31.307783 40.116508 -10.466861 -30.415064 7.679728 9.137055 57.066975 -5.130672 20.884743 -33.967239 9.870971 
11.379677 39.688812 21.454597 -1.366669 13.638845 -48.047043 -5.885556 10.784041 -47.303223 6.444120 2.950024 34.863350 -0.138351 8.808565 -0.115556 5.829745 -8.093253 63.812798 18.385187 -12.036672 -13.810948 -1.626452 -21.561693 -0.546024 -7.422510 -23.174541 -3.529142 4.294093 10.324883 -18.191454 8.146878 9.117844 -8.930671 93.260452 -7.743785 59.529045 0.503148 40.200378 101.652054 11.796760 -30.062012 21.316202 27.903095 -45.579758 11.098531 -24.772438 73.188255 14.736442 0.511892 -36.062050 50.444458 -21.146095 -23.281923 7.325384 6.435534 43.187649 -3.546314 29.201941 -25.508093 10.509543 
11.255635 39.620575 20.739635 -1.294530 13.307257 -37.251011 -5.039202 10.098348 -62.532188 9.640055 6.364677 11.042032 -0.108633 8.564431 -0.120541 3.235568 -6.786133 87.013603 6.836982 -8.931060 -21.894806 -0.809151 -7.997320 -21.172709 -13.859355 -56.296551 -24.079659 4.294093 10.324883 -18.191454 5.672814 9.527908 -8.780658 72.760490 -19.469379 53.282703 5.021417 33.374962 101.714844 4.248880 -30.809767 4.931970 25.108906 -49.853790 8.700098 -22.007429 71.542206 11.961308 -0.480601 -32.197598 42.289021 -20.078480 -21.342840 8.449902 7.403665 48.051826 -4.100749 24.976669 -30.857864 -1.464033 
10.367989 39.619488 19.199667 -1.253139 13.063385 -28.847570 -4.439851 9.795307 -64.780289 9.198421 5.832757 -5.786570 -0.088843 8.398421 17.835224 3.012164 -7.216681 77.839668 -1.806195 -5.732028 -25.760071 -1.068663 3.461024 -37.599968 -62.684006 -49.386185 -82.617393 4.280068 10.313938 -18.185013 3.929846 9.705577 -8.771127 58.720390 -29.388971 46.234711 7.987945 29.571198 108.189774 -2.778314 -28.523256 -13.893195 25.530132 -53.011948 8.805578 -19.748224 69.412827 9.794700 -2.950331 -27.829514 34.192375 -17.038565 -21.001129 8.998239 7.860034 52.589874 -4.281243 20.421003 -34.480606 -12.490725 
